<svg width="66" height="24" viewBox="0 0 66 24" fill="none" xmlns="http://www.w3.org/2000/svg">
<path d="M9.832 4.88C11.016 4.88 12.0507 5.10933 12.936 5.568C13.832 6.016 14.52 6.66667 15 7.52C15.4907 8.36267 15.736 9.34933 15.736 10.48C15.736 11.6107 15.4907 12.592 15 13.424C14.52 14.256 13.832 14.896 12.936 15.344C12.0507 15.7813 11.016 16 9.832 16H6.2V4.88H9.832ZM9.832 14.512C11.1333 14.512 12.1307 14.16 12.824 13.456C13.5173 12.752 13.864 11.76 13.864 10.48C13.864 9.18933 13.5173 8.18133 12.824 7.456C12.1307 6.73067 11.1333 6.368 9.832 6.368H8.024V14.512H9.832ZM25.6237 11.376C25.6237 11.7067 25.6024 12.0053 25.5597 12.272H18.8237C18.8771 12.976 19.1384 13.5413 19.6077 13.968C20.0771 14.3947 20.6531 14.608 21.3357 14.608C22.3171 14.608 23.0104 14.1973 23.4157 13.376H25.3837C25.1171 14.1867 24.6317 14.8533 23.9277 15.376C23.2344 15.888 22.3704 16.144 21.3357 16.144C20.4931 16.144 19.7357 15.9573 19.0637 15.584C18.4024 15.2 17.8797 14.6667 17.4957 13.984C17.1224 13.2907 16.9357 12.4907 16.9357 11.584C16.9357 10.6773 17.1171 9.88267 17.4797 9.2C17.8531 8.50667 18.3704 7.97333 19.0317 7.6C19.7037 7.22667 20.4717 7.04 21.3357 7.04C22.1677 7.04 22.9091 7.22133 23.5597 7.584C24.2104 7.94667 24.7171 8.45867 25.0797 9.12C25.4424 9.77067 25.6237 10.5227 25.6237 11.376ZM23.7197 10.8C23.7091 10.128 23.4691 9.58933 22.9997 9.184C22.5304 8.77867 21.9491 8.576 21.2557 8.576C20.6264 8.576 20.0877 8.77867 19.6397 9.184C19.1917 9.57867 18.9251 10.1173 18.8397 10.8H23.7197ZM29.2427 8.48C29.5521 8.07467 29.9734 7.73333 30.5067 7.456C31.0401 7.17867 31.6427 7.04 32.3147 7.04C33.0827 7.04 33.7814 7.232 34.4107 7.616C35.0507 7.98933 35.5521 8.51733 35.9147 9.2C36.2774 9.88267 36.4587 10.6667 36.4587 11.552C36.4587 12.4373 36.2774 13.232 35.9147 13.936C35.5521 14.6293 35.0507 15.1733 34.4107 15.568C33.7814 15.952 33.0827 16.144 32.3147 16.144C31.6427 16.144 31.0454 16.0107 30.5227 15.744C30.0001 15.4667 29.5734 15.1253 29.2427 14.72V20.192H27.4187V7.184H29.2427V8.48ZM34.6027 11.552C34.6027 10.944 34.4747 10.4213 34.2187 9.984C33.9734 9.536 33.6427 9.2 33.2267 8.976C32.8214 8.74133 32.3841 8.624 31.9147 8.624C31.4561 8.624 31.0187 8.74133 30.6027 8.976C30.1974 9.21067 29.8667 9.552 29.6107 10C29.3654 10.448 29.2427 10.976 29.2427 11.584C29.2427 12.192 29.3654 12.7253 29.6107 13.184C29.8667 13.632 30.1974 13.9733 30.6027 14.208C31.0187 14.4427 31.4561 14.56 31.9147 14.56C32.3841 14.56 32.8214 14.4427 33.2267 14.208C33.6427 13.9627 33.9734 13.6107 34.2187 13.152C34.4747 12.6933 34.6027 12.16 34.6027 11.552ZM40.0865 4.16V16H38.2625V4.16H40.0865ZM46.3052 16.144C45.4732 16.144 44.7212 15.9573 44.0492 15.584C43.3772 15.2 42.8492 14.6667 42.4652 13.984C42.0812 13.2907 41.8892 12.4907 41.8892 11.584C41.8892 10.688 42.0866 9.89333 42.4812 9.2C42.8759 8.50667 43.4146 7.97333 44.0972 7.6C44.7799 7.22667 45.5426 7.04 46.3852 7.04C47.2279 7.04 47.9906 7.22667 48.6732 7.6C49.3559 7.97333 49.8946 8.50667 50.2892 9.2C50.6839 9.89333 50.8812 10.688 50.8812 11.584C50.8812 12.48 50.6786 13.2747 50.2732 13.968C49.8679 14.6613 49.3132 15.2 48.6092 15.584C47.9159 15.9573 47.1479 16.144 46.3052 16.144ZM46.3052 14.56C46.7746 14.56 47.2119 14.448 47.6172 14.224C48.0332 14 48.3692 13.664 48.6252 13.216C48.8812 12.768 49.0092 12.224 49.0092 11.584C49.0092 10.944 48.8866 10.4053 48.6412 9.968C48.3959 9.52 48.0706 9.184 47.6652 8.96C47.2599 8.736 46.8226 8.624 46.3532 8.624C45.8839 8.624 45.4466 8.736 45.0412 8.96C44.6466 9.184 44.3319 9.52 44.0972 9.968C43.8626 10.4053 43.7452 10.944 43.7452 11.584C43.7452 12.5333 43.9852 13.2693 44.4652 13.792C44.9559 14.304 45.5692 14.56 46.3052 14.56ZM60.6204 7.184L55.2124 20.144H53.3244L55.1164 15.856L51.6444 7.184H53.6764L56.1564 13.904L58.7324 7.184H60.6204Z" fill="#545454"/>
</svg>
